<?xml version="1.0" standalone="no"?><!DOCTYPE svg PUBLIC "-//W3C//DTD SVG 1.1//EN" "http://www.w3.org/Graphics/SVG/1.1/DTD/svg11.dtd"><svg t="1597485659770" class="icon" viewBox="0 0 1024 1024" version="1.1" xmlns="http://www.w3.org/2000/svg" p-id="12264" xmlns:xlink="http://www.w3.org/1999/xlink" width="200" height="200"><defs><style type="text/css"></style></defs><path d="M630.659005 613.467973 390.741797 613.467973c-3.515057 0-6.363941 2.849908-6.363941 6.362918l0 15.173584c0 3.517103 2.848884 6.365988 6.363941 6.365988l239.917208 0c3.51608 0 6.364965-2.848884 6.364965-6.365988l0-15.173584C637.02397 616.31788 634.174062 613.467973 630.659005 613.467973z" p-id="12265" fill="#707070"></path><path d="M630.659005 438.442704 390.741797 438.442704c-3.515057 0-6.363941 2.848884-6.363941 6.363941l0 15.172561c0 3.51608 2.848884 6.364965 6.363941 6.364965l239.917208 0c3.51608 0 6.364965-2.849908 6.364965-6.364965l0-15.172561C637.02397 441.291588 634.174062 438.442704 630.659005 438.442704z" p-id="12266" fill="#707070"></path><path d="M630.659005 525.954827 390.741797 525.954827c-3.515057 0-6.363941 2.848884-6.363941 6.363941l0 15.173584c0 3.517103 2.848884 6.365988 6.363941 6.365988l239.917208 0c3.51608 0 6.364965-2.848884 6.364965-6.365988l0-15.173584C637.02397 528.803711 634.174062 525.954827 630.659005 525.954827z" p-id="12267" fill="#707070"></path><path d="M511.999488 64.021106c-247.27171 0-447.724091 200.452381-447.724091 447.724091s200.452381 447.724091 447.724091 447.724091 447.724091-200.453405 447.724091-447.724091S759.271198 64.021106 511.999488 64.021106zM437.415816 285.691741c0-3.515057 2.849908-6.363941 6.364965-6.363941l133.840264 0c3.51608 0 6.364965 2.848884 6.364965 6.363941l0 15.173584c0 3.515057-2.848884 6.363941-6.364965 6.363941L443.780781 307.229267c-3.51608 0-6.364965-2.848884-6.364965-6.363941L437.415816 285.691741zM731.692073 722.224955c0 11.717879-9.498328 21.216207-21.214161 21.216207L309.890374 743.441163c-11.716856 0-21.215184-9.498328-21.215184-21.216207L288.67519 300.865325c0-11.716856 9.499351-21.215184 21.215184-21.215184l74.499761 0c6.612605 0.669242 9.402137 8.221242 9.402137 8.221242l24.658609 40.420595c0 0 1.149173 0.963954 1.595334 1.214664 0.607844 0.340761 2.255367 0.530073 2.255367 0.530073l174.893262 0c0 0 2.165316-0.10847 2.917446-0.530073 0.873903-0.490164 2.620687-2.895957 2.620687-2.895957l23.63428-38.739303c0 0 2.789533-7.552 9.402137-8.221242l74.711586 0c11.716856 0 21.214161 9.498328 21.214161 21.215184L731.695143 722.224955z" p-id="12268" fill="#707070"></path></svg>