<?xml version="1.0" standalone="no"?><!DOCTYPE svg PUBLIC "-//W3C//DTD SVG 1.1//EN" "http://www.w3.org/Graphics/SVG/1.1/DTD/svg11.dtd"><svg t="1597418943319" class="icon" viewBox="0 0 1129 1024" version="1.1" xmlns="http://www.w3.org/2000/svg" p-id="927" xmlns:xlink="http://www.w3.org/1999/xlink" width="220.5078125" height="200"><defs><style type="text/css"></style></defs><path d="M558.34482781 919.17241344c-218.48275875 0-397.24137938-177.10344844-397.24137937-397.24137938s177.10344844-397.24137938 397.24137937-397.24137843 397.24137938 178.75862062 397.24137938 397.24137843-178.75862062 397.24137938-397.24137938 397.24137938z m0-759.72413719c-200.27586188 0-364.13793094 163.86206906-364.13793093 364.13793094s163.86206906 364.13793094 364.13793093 364.13793094 364.13793094-163.86206906 364.13793094-364.13793094c-1.65517219-201.93103406-163.86206906-364.13793094-364.13793094-364.13793094z" fill="#8a8a8a" p-id="928"></path><path d="M560 508.68965562L384.55172375 331.58620719c-6.62068969-6.62068969-6.62068969-16.55172375 0-23.17241438s16.55172375-6.62068969 23.17241437 0l152.27586188 152.27586281 145.65517219-152.27586281c6.62068969-6.62068969 16.55172375-6.62068969 23.17241437 0 6.62068969 6.62068969 6.62068969 16.55172375 0 23.17241438L560 508.68965562z" fill="#8a8a8a" p-id="929"></path><path d="M748.68965563 516.9655175h-380.68965563c-8.27586188 0-13.24137938-6.62068969-13.24137938-13.24137938s6.62068969-13.24137938 13.24137938-13.24137937h380.68965563c8.27586188 0 13.24137938 6.62068969 13.24137843 13.24137937s-4.9655175 13.24137938-13.24137844 13.24137938zM748.68965563 624.55172375h-380.68965563c-8.27586188 0-13.24137938-6.62068969-13.24137938-13.24137938s6.62068969-13.24137938 13.24137938-13.24137843h380.68965563c8.27586188 0 13.24137938 6.62068969 13.24137843 13.24137843s-4.9655175 13.24137938-13.24137844 13.24137938z" fill="#8a8a8a" p-id="930"></path><path d="M560 785.10344844c-8.27586188 0-13.24137938-6.62068969-13.24137938-13.24137938V483.86206906c0-8.27586188 6.62068969-13.24137938 13.24137938-13.24137937s13.24137938 6.62068969 13.24137938 13.24137937v286.34482782c0 8.27586188-4.9655175 14.89655156-13.24137938 14.89655156z" fill="#8a8a8a" p-id="931"></path></svg>