<?xml version="1.0" standalone="no"?><!DOCTYPE svg PUBLIC "-//W3C//DTD SVG 1.1//EN" "http://www.w3.org/Graphics/SVG/1.1/DTD/svg11.dtd"><svg t="1597418947926" class="icon" viewBox="0 0 1024 1024" version="1.1" xmlns="http://www.w3.org/2000/svg" p-id="1062" xmlns:xlink="http://www.w3.org/1999/xlink" width="200" height="200"><defs><style type="text/css"></style></defs><path d="M449.375 905.46875c-16.6875 0-32.25-6.65625-43.875-18.65625L134.84375 606.40625c-11.34375-11.71875-17.34375-27.09375-17.0625-43.40625 0.28125-16.3125 6.9375-31.5 18.5625-42.75l328.3125-316.875c11.4375-11.0625 26.4375-17.0625 42.28125-17.0625 2.15625 0 4.40625 0.09375 6.5625 0.375l254.90625 27.46875c29.53125 3.1875 52.40625 27 54.28125 56.71875l15.9375 252.84375c1.125 17.90625-5.625 35.25-18.46875 47.71875L491.65625 888.40625c-11.4375 11.0625-26.4375 17.0625-42.28125 17.0625z m57.65625-692.90625c-9 0-17.625 3.46875-24.09375 9.75L154.625 539.1875c-6.65625 6.46875-10.40625 15.09375-10.59375 24.375s3.28125 18 9.75 24.65625l270.65625 280.5c6.5625 6.84375 15.46875 10.59375 24.9375 10.59375 9 0 17.53125-3.46875 24.09375-9.75l328.5-317.0625c7.3125-7.03125 11.15625-16.96875 10.5-27.09375l-15.9375-252.84375c-1.03125-16.875-14.0625-30.46875-30.84375-32.25l-254.90625-27.46875c-1.21875-0.1875-2.53125-0.28125-3.75-0.28125z" fill="#8a8a8a" p-id="1063"></path><path d="M582.03125 544.90625c-26.53125 0-51.375-10.5-69.84375-29.625-37.125-38.53125-36.09375-100.03125 2.4375-137.15625 18.1875-17.53125 42.09375-27.1875 67.3125-27.1875 26.53125 0 51.375 10.5 69.84375 29.625 18 18.65625 27.65625 43.21875 27.1875 69.09375s-10.96875 50.0625-29.625 68.0625c-18.09375 17.53125-42 27.1875-67.3125 27.1875z m0-167.8125c-18.375 0-35.90625 7.03125-49.125 19.875-28.03125 27.09375-28.875 72-1.78125 100.03125 13.5 13.96875 31.5 21.65625 50.90625 21.65625 18.375 0 35.90625-7.03125 49.125-19.875 13.59375-13.125 21.28125-30.75 21.65625-49.6875 0.375-18.9375-6.75-36.75-19.875-50.4375-13.40625-13.875-31.5-21.5625-50.90625-21.5625z" fill="#8a8a8a" p-id="1064"></path></svg>